<svg version="1.1" viewBox="0.0 0.0 960.0 720.0" fill="none" stroke="none" stroke-linecap="square" stroke-miterlimit="10" xmlns:xlink="http://www.w3.org/1999/xlink" xmlns="http://www.w3.org/2000/svg"><clipPath id="p.0"><path d="m0 0l960.0 0l0 720.0l-960.0 0l0 -720.0z" clip-rule="nonzero"/></clipPath><g clip-path="url(#p.0)"><path fill="#000000" fill-opacity="0.0" d="m0 0l960.0 0l0 720.0l-960.0 0z" fill-rule="evenodd"/><path fill="#000000" fill-opacity="0.0" d="m644.45667 524.4493l144.56696 0l-144.56696 144.56696z" fill-rule="evenodd"/><path stroke="#000000" stroke-width="24.0" stroke-linejoin="round" stroke-linecap="butt" d="m644.45667 524.4493l144.56696 0l-144.56696 144.56696z" fill-rule="evenodd"/><path fill="#000000" fill-opacity="0.0" d="m121.87664 476.28873l0 0c0 -111.24841 90.184654 -201.43307 201.43307 -201.43307l0 0c53.42337 0 104.65866 21.222351 142.4347 58.998383c37.776 37.77603 58.998383 89.01132 58.998383 142.4347l0 0c0 111.24838 -90.18466 201.43307 -201.43307 201.43307l0 0c-111.24843 0 -201.43307 -90.18469 -201.43307 -201.43307z" fill-rule="evenodd"/><path stroke="#000000" stroke-width="24.0" stroke-linejoin="round" stroke-linecap="butt" d="m121.87664 476.28873l0 0c0 -111.24841 90.184654 -201.43307 201.43307 -201.43307l0 0c53.42337 0 104.65866 21.222351 142.4347 58.998383c37.776 37.77603 58.998383 89.01132 58.998383 142.4347l0 0c0 111.24838 -90.18466 201.43307 -201.43307 201.43307l0 0c-111.24843 0 -201.43307 -90.18469 -201.43307 -201.43307z" fill-rule="evenodd"/><path fill="#000000" fill-opacity="0.0" d="m170.81627 344.6929l0 -293.87662l618.36743 0l0 473.87665l-144.49078 144.49078l-262.65094 -0.61151123" fill-rule="evenodd"/><path stroke="#000000" stroke-width="24.0" stroke-linejoin="round" stroke-linecap="butt" d="m170.81627 344.6929l0 -293.87662l618.36743 0l0 473.87665l-144.49078 144.49078l-262.65094 -0.61151123" fill-rule="evenodd"/><path fill="#000000" fill-opacity="0.0" d="m172.65355 612.2441l0 56.328613l89.389786 0" fill-rule="evenodd"/><path stroke="#000000" stroke-width="24.0" stroke-linejoin="round" stroke-linecap="butt" d="m172.65355 612.2441l0 56.328613l89.389786 0" fill-rule="evenodd"/><path fill="#000000" d="m215.1579 462.15497l94.01807 0l0 -94.01807l28.267517 0l0 94.01807l94.018036 0l0 28.267517l-94.018036 0l0 94.01807l-28.267517 0l0 -94.01807l-94.01807 0z" fill-rule="evenodd"/><path stroke="#000000" stroke-width="8.0" stroke-linejoin="round" stroke-linecap="butt" d="m215.1579 462.15497l94.01807 0l0 -94.01807l28.267517 0l0 94.01807l94.018036 0l0 28.267517l-94.018036 0l0 94.01807l-28.267517 0l0 -94.01807l-94.01807 0z" fill-rule="evenodd"/></g></svg>