<svg version="1.1" viewBox="0.0 0.0 960.0 720.0" fill="none" stroke="none" stroke-linecap="square" stroke-miterlimit="10" xmlns:xlink="http://www.w3.org/1999/xlink" xmlns="http://www.w3.org/2000/svg"><clipPath id="p.0"><path d="m0 0l960.0 0l0 720.0l-960.0 0l0 -720.0z" clip-rule="nonzero"/></clipPath><g clip-path="url(#p.0)"><path fill="#000000" fill-opacity="0.0" d="m0 0l960.0 0l0 720.0l-960.0 0z" fill-rule="evenodd"/><path fill="#000000" fill-opacity="0.0" d="m644.45667 524.4493l144.56696 0l-144.56696 144.56696z" fill-rule="evenodd"/><path stroke="#000000" stroke-width="24.0" stroke-linejoin="round" stroke-linecap="butt" d="m644.45667 524.4493l144.56696 0l-144.56696 144.56696z" fill-rule="evenodd"/><path fill="#000000" fill-opacity="0.0" d="m432.5748 231.08136l0 0c0 -111.248405 90.18466 -201.43306 201.43307 -201.43306l0 0c53.4234 0 104.65869 21.222353 142.4347 58.998383c37.776 37.77603 58.998352 89.011314 58.998352 142.4347l0 0c0 111.24841 -90.18463 201.43307 -201.43304 201.43307l0 0c-111.24841 0 -201.43307 -90.18466 -201.43307 -201.43307z" fill-rule="evenodd"/><path stroke="#000000" stroke-width="24.0" stroke-linejoin="round" stroke-linecap="butt" d="m432.5748 231.08136l0 0c0 -111.248405 90.18466 -201.43306 201.43307 -201.43306l0 0c53.4234 0 104.65869 21.222353 142.4347 58.998383c37.776 37.77603 58.998352 89.011314 58.998352 142.4347l0 0c0 111.24841 -90.18463 201.43307 -201.43304 201.43307l0 0c-111.24841 0 -201.43307 -90.18466 -201.43307 -201.43307z" fill-rule="evenodd"/><path fill="#000000" fill-opacity="0.0" d="m533.1837 -58.595802l273.48035 0l0 532.4725l-273.48035 0z" fill-rule="evenodd"/><path fill="#000000" d="m716.21497 153.3417q0 0.78125 -0.109375 1.671875q-0.09375 0.875 -0.296875 1.859375q-0.1875 0.96875 -0.484375 2.140625q-0.28125 1.171875 -0.671875 2.53125l-59.96875 167.0q-0.78125 2.140625 -2.046875 3.515625q-1.265625 1.359375 -3.8125 2.15625q-2.53125 0.78125 -6.4375 1.0625q-3.90625 0.296875 -9.765625 0.296875q-5.859375 0 -9.765625 -0.390625q-3.90625 -0.390625 -6.359375 -1.171875q-2.4375 -0.78125 -3.8125 -2.140625q-1.359375 -1.375 -2.140625 -3.328125l-59.765625 -167.0q-0.78125 -2.34375 -1.265625 -4.09375q-0.484375 -1.765625 -0.59375 -2.640625q-0.09375 -0.875 -0.09375 -1.46875q0 -1.5625 0.78125 -2.734375q0.78125 -1.171875 2.640625 -1.84375q1.859375 -0.6875 4.875 -0.875q3.03125 -0.203125 7.53125 -0.203125q5.65625 0 9.078125 0.296875q3.421875 0.28125 5.265625 1.0625q1.859375 0.78125 2.734375 1.953125q0.890625 1.171875 1.671875 2.9375l49.609375 144.92188l0.78125 2.34375l0.578125 -2.34375l49.03125 -144.92188q0.390625 -1.765625 1.359375 -2.9375q0.984375 -1.171875 2.828125 -1.953125q1.859375 -0.78125 5.078125 -1.0625q3.234375 -0.296875 8.5 -0.296875q4.5 0 7.421875 0.203125q2.9375 0.1875 4.59375 0.96875q1.65625 0.78125 2.34375 1.859375q0.6875 1.0625 0.6875 2.625z" fill-rule="nonzero"/><path fill="#000000" fill-opacity="0.0" d="m544.7454 51.349083l-372.83728 0l0 618.41736l473.30182 0l146.23358 -146.23096l0 -165.20999" fill-rule="evenodd"/><path stroke="#000000" stroke-width="24.0" stroke-linejoin="round" stroke-linecap="butt" d="m544.7454 51.349083l-372.83728 0l0 618.41736l473.30182 0l146.23358 -146.23096l0 -165.20999" fill-rule="evenodd"/><path fill="#000000" fill-opacity="0.0" d="m726.6982 51.349083l64.74274 0l0 56.92913" fill-rule="evenodd"/><path stroke="#000000" stroke-width="24.0" stroke-linejoin="round" stroke-linecap="butt" d="m726.6982 51.349083l64.74274 0l0 56.92913" fill-rule="evenodd"/></g></svg>